<svg aria-hidden="true" style="position:absolute;width:0;height:0;overflow:hidden" xmlns="http://www.w3.org/2000/svg"><defs>
    <symbol id="icon-arrow_small" viewBox="0 0 64 32">
        <path d="M.671.671A2.272 2.272 0 0 1 2.289 0a2.29 2.29 0 0 1 1.618.671l25.804 25.808L55.515.671a2.296 2.296 0 0 1 1.618-.67 2.29 2.29 0 0 1 1.618 3.906L31.329 31.329a2.272 2.272 0 0 1-1.618.671 2.29 2.29 0 0 1-1.618-.671L.671 3.907A2.272 2.272 0 0 1 0 2.289 2.29 2.29 0 0 1 .671.671z"/></symbol>
    <symbol id="icon-more" viewBox="0 0 32 32"><path fill="#0096c7" style="fill:var(--color1, #0096c7)" d="M14.25 7.219a1.752 1.752 0 0 0 2.987 1.237 1.75 1.75 0 1 0-2.987-1.237zm0 8.75a1.752 1.752 0 0 0 2.987 1.237 1.75 1.75 0 1 0-2.987-1.237zm0 8.75a1.752 1.752 0 0 0 2.987 1.237 1.75 1.75 0 1 0-2.987-1.237z"/></symbol><symbol id="icon-facebook" viewBox="0 0 31 32"><path fill="#fff" style="fill:var(--color2, #fff)" d="M19.189 6.596h2.57V2.119c-.444-.061-1.969-.198-3.745-.198-8.133 0-5.92 9.211-6.244 10.56H7.679v5.005h4.09v12.595h5.014V17.488h3.924l.623-5.005h-4.549c.221-3.313-.893-5.885 2.406-5.885z"/></symbol><symbol id="icon-instagram" viewBox="0 0 31 32"><path fill="#fff" style="fill:var(--color2, #fff)" d="M26.811 11.25c-.056-1.226-.251-2.064-.536-2.796a5.637 5.637 0 0 0-1.329-2.04 5.645 5.645 0 0 0-2.04-1.329c-.733-.285-1.57-.479-2.796-.535-1.229-.056-1.621-.07-4.75-.07s-3.521.013-4.75.069c-1.226.056-2.063.251-2.796.536a5.637 5.637 0 0 0-2.04 1.329 5.645 5.645 0 0 0-1.329 2.04c-.285.733-.479 1.57-.535 2.796-.056 1.229-.07 1.621-.07 4.75s.013 3.521.07 4.75c.056 1.226.251 2.064.535 2.796a5.645 5.645 0 0 0 1.329 2.04 5.645 5.645 0 0 0 2.04 1.329c.733.285 1.57.48 2.796.536 1.229.056 1.621.069 4.75.069s3.521-.013 4.75-.069c1.226-.056 2.064-.251 2.796-.536a5.89 5.89 0 0 0 3.369-3.369c.285-.733.48-1.57.536-2.796.056-1.229.069-1.621.069-4.75s-.013-3.521-.069-4.75zm-2.074 9.405c-.051 1.123-.239 1.733-.397 2.139a3.815 3.815 0 0 1-2.186 2.186c-.406.158-1.016.345-2.139.397-1.214.056-1.579.067-4.655.067s-3.441-.012-4.655-.067c-1.123-.051-1.733-.239-2.139-.397a3.577 3.577 0 0 1-1.325-.862 3.569 3.569 0 0 1-.862-1.325c-.158-.406-.345-1.016-.397-2.139-.055-1.215-.067-1.579-.067-4.655s.012-3.44.067-4.655c.051-1.123.239-1.733.397-2.139.185-.5.479-.953.862-1.325a3.569 3.569 0 0 1 1.325-.862c.406-.158 1.016-.345 2.139-.397 1.215-.055 1.579-.067 4.655-.067 3.076 0 3.44.012 4.655.067 1.123.051 1.733.239 2.139.397.5.185.953.479 1.325.862.383.372.677.824.862 1.325.158.406.346 1.016.397 2.139.055 1.215.067 1.579.067 4.655s-.012 3.44-.067 4.655z"/><path fill="#fff" style="fill:var(--color2, #fff)" d="M15.359 10.084a5.916 5.916 0 1 0 0 11.833 5.916 5.916 0 0 0 0-11.833zm0 9.756a3.84 3.84 0 1 1 0-7.68 3.84 3.84 0 0 1 0 7.68zM22.89 9.85a1.382 1.382 0 1 1-2.765 0 1.382 1.382 0 0 1 2.765 0z"/></symbol>
    <symbol id="icon-point" viewBox="0 0 23 32">
        <path   d="M10.667 6.933a3.733 3.733 0 1 0 0 7.465 3.733 3.733 0 0 0 0-7.465zm0 6.4a2.667 2.667 0 1 1 0-5.334 2.667 2.667 0 0 1 0 5.334z"/>
        <path  d="M10.667 0C4.776 0 0 4.776 0 10.667c0 5.693 9.805 20.469 10.223 21.096a.533.533 0 0 0 .888 0c.418-.627 10.223-15.403 10.223-21.096C21.334 4.776 16.558 0 10.667 0zm0 30.492c-1.944-2.998-9.6-15.111-9.6-19.826.006-5.299 4.301-9.594 9.6-9.6 5.299.006 9.594 4.301 9.6 9.6 0 4.714-7.656 16.827-9.6 19.826z"/></symbol>
    <symbol id="icon-lang" viewBox="0 0 32 32"><path  d="M15.999 32C7.175 32 0 24.824 0 16S7.175 0 15.999 0C24.822 0 32 7.176 32 16s-7.178 16-16.001 16zm.034-30.159c-3.72.005-7.286 1.495-9.916 4.146s-4.11 6.243-4.114 9.991c.004 3.748 1.483 7.342 4.114 9.993s6.197 4.142 9.917 4.146c3.72-.004 7.287-1.495 9.918-4.146s4.111-6.245 4.114-9.994c-.005-3.748-1.485-7.342-4.115-9.992s-6.197-4.141-9.917-4.145z"/><path fill="#eaeaea" style="fill:var(--color3, #eaeaea)" d="M14.545.727H16v30.545h-1.455V.727z"/><path fill="#eaeaea" style="fill:var(--color3, #eaeaea)" d="M1.455 14.545h29.091V16H1.455v-1.455zM2.909 8.727h26.182v1.455H2.909V8.727zM2.909 21.818h26.182v1.455H2.909v-1.455z"/><path fill="#eaeaea" style="fill:var(--color3, #eaeaea)" d="M15.05 32c-5.609-2.752-9.231-9.061-9.231-16.076C5.819 9.072 9.325 2.82 14.757 0l.996 1.917C11.029 4.375 7.98 9.872 7.98 15.924c0 6.193 3.151 11.742 8.022 14.132l-.95 1.943z"/><path fill="#eaeaea" style="fill:var(--color3, #eaeaea)" d="M17.056 32 16 30.079c4.817-2.468 7.93-8.01 7.93-14.12 0-6.038-3.061-11.555-7.792-14.05L17.217.001c5.446 2.868 8.966 9.133 8.966 15.959.002 6.909-3.583 13.204-9.126 16.041z"/></symbol><symbol id="icon-zoom" viewBox="0 0 32 32"><path fill="#fff" style="fill:var(--color2, #fff)" d="m31.831 30.979-8.723-8.723c4.951-5.421 4.569-13.829-.852-18.779S8.427-1.092 3.477 4.329c-4.95 5.421-4.569 13.829.852 18.779 5.077 4.636 12.851 4.636 17.927 0l8.723 8.723a.603.603 0 0 0 .852-.852zm-18.5-5.599c-6.652-.008-12.042-5.398-12.05-12.05 0-6.655 5.395-12.05 12.05-12.05s12.05 5.395 12.05 12.05c0 6.655-5.395 12.05-12.05 12.05z"/></symbol><symbol id="icon-heart" viewBox="0 0 32 32"><path fill="#f42c3c" style="fill:var(--color4, #f42c3c)" d="M23.2 1.333A8.816 8.816 0 0 0 16 5.081a8.813 8.813 0 0 0-7.2-3.748c-4.688 0-8.8 4.362-8.8 9.333 0 4.845 2.736 9.836 7.912 14.432a42.498 42.498 0 0 0 7.843 5.508.536.536 0 0 0 .49 0 42.592 42.592 0 0 0 7.84-5.508C29.264 20.502 32 15.511 32 10.666c0-4.972-4.112-9.333-8.8-9.333zM16 29.527c-1.959-1.081-14.933-8.633-14.933-18.86C1.067 6.263 4.68 2.4 8.8 2.4a7.749 7.749 0 0 1 6.735 3.942.555.555 0 0 0 .93 0A7.749 7.749 0 0 1 23.2 2.4c4.12 0 7.733 3.863 7.733 8.267 0 10.227-12.975 17.779-14.933 18.86z"/></symbol><symbol id="icon-linkedin" viewBox="0 0 31 32"><path fill="#fff" style="fill:var(--color2, #fff)" d="M26.872 28.8v-.001h.006V19.88c0-4.363-.939-7.725-6.04-7.725-2.452 0-4.098 1.346-4.77 2.621h-.071v-2.214H11.16v16.237h5.036v-8.04c0-2.117.401-4.164 3.023-4.164 2.583 0 2.621 2.416 2.621 4.3V28.8h5.031zM2.961 12.564h5.042v16.237H2.961V12.564zM5.48 4.48c-1.612 0-2.92 1.308-2.92 2.92s1.308 2.948 2.92 2.948c1.612 0 2.92-1.336 2.92-2.948S7.091 4.48 5.48 4.48z"/></symbol><symbol id="icon-loud_speaker" viewBox="0 0 32 32"><path d="M22.667 2.667H9.334a4.003 4.003 0 0 0-4 4v18.667a4.003 4.003 0 0 0 4 4h13.333a4.003 4.003 0 0 0 4-4V6.667a4.003 4.003 0 0 0-4-4zM24 25.333a1.334 1.334 0 0 1-1.334 1.334H9.333a1.334 1.334 0 0 1-1.334-1.334V6.666a1.335 1.335 0 0 1 1.334-1.334h13.333A1.335 1.335 0 0 1 24 6.666v18.667zM19.173 14.4A4 4 0 0 0 20 12a4.003 4.003 0 0 0-4-4 4.003 4.003 0 0 0-4 4 4 4 0 0 0 .827 2.4 5.336 5.336 0 0 0 .048 8.609 5.332 5.332 0 0 0 6.298-8.609zM16 10.667a1.332 1.332 0 0 1 1.308 1.593 1.328 1.328 0 0 1-1.048 1.048 1.326 1.326 0 0 1-1.368-.567 1.337 1.337 0 0 1 .166-1.684c.25-.25.589-.391.943-.391zm0 10.666a2.664 2.664 0 0 1-2.615-3.187 2.664 2.664 0 0 1 2.095-2.095 2.666 2.666 0 1 1 .52 5.282z"/></symbol><symbol id="icon-twitter" viewBox="0 0 31 32"><path fill="#fff" style="fill:var(--color2, #fff)" d="M26.88 8.184A10.1 10.1 0 0 1 24.007 9 5.11 5.11 0 0 0 26.2 6.144a9.753 9.753 0 0 1-3.162 1.251 4.915 4.915 0 0 0-3.642-1.635c-2.76 0-4.983 2.322-4.983 5.169 0 .41.033.803.116 1.178-4.145-.21-7.813-2.269-10.277-5.405a5.351 5.351 0 0 0-.682 2.612c0 1.79.889 3.376 2.215 4.294a4.804 4.804 0 0 1-2.253-.636v.057c0 2.511 1.728 4.597 3.995 5.077a4.81 4.81 0 0 1-1.307.17c-.319 0-.641-.019-.944-.088.646 2.046 2.479 3.551 4.659 3.6a9.797 9.797 0 0 1-7.375 2.133 13.683 13.683 0 0 0 7.649 2.319c9.175 0 14.191-7.877 14.191-14.705 0-.228-.008-.449-.018-.668a10.169 10.169 0 0 0 2.499-2.683z"/></symbol>
    <symbol id="icon-arrow" viewBox="0 0 56 32"><path d="M27.956 29.991a3.986 3.986 0 0 1-2.556-.92L1.442 9.081a4.006 4.006 0 0 1-.52-5.637 3.997 3.997 0 0 1 5.631-.519l21.403 17.911L49.359 3.565a3.991 3.991 0 0 1 5.631.6 3.992 3.992 0 0 1 .993 3.041 3.991 3.991 0 0 1-1.552 2.796l-23.958 19.31a3.992 3.992 0 0 1-2.516.68z"/></symbol><symbol id="icon-check" viewBox="0 0 45 32"><path fill="#fff" style="fill:var(--color2, #fff)" d="M15.666 32c-.563 0-1.126-.22-1.554-.658L.645 17.588c-.86-.878-.86-2.297 0-3.175s2.249-.878 3.109 0l11.912 12.166L41.046.658c.86-.878 2.249-.878 3.109 0s.86 2.297 0 3.176L17.221 31.342a2.17 2.17 0 0 1-1.555.658z"/></symbol><symbol id="icon-whatsapp-business" viewBox="0 0 31 32"><path fill="#fff" style="fill:var(--color2, #fff)" d="M23.085 8.83a10.407 10.407 0 0 0-7.407-3.07c-5.771 0-10.468 4.695-10.47 10.466a10.435 10.435 0 0 0 1.398 5.233l-1.485 5.424 5.551-1.456a10.465 10.465 0 0 0 5.003 1.274h.004c5.771 0 10.468-4.696 10.47-10.467a10.4 10.4 0 0 0-3.064-7.405zm-7.407 16.104h-.004a8.69 8.69 0 0 1-4.429-1.213l-.318-.189-3.294.864.879-3.21-.207-.329a8.684 8.684 0 0 1-1.331-4.63c.002-4.797 3.906-8.699 8.706-8.699 2.324.001 4.509.907 6.153 2.551s2.547 3.83 2.547 6.155c-.002 4.797-3.906 8.7-8.702 8.7z"/><path fill="#fff" style="fill:var(--color2, #fff)" d="M15.678 24.934h-.004a8.69 8.69 0 0 1-4.429-1.213l-.318-.189-3.294.864.879-3.21-.207-.329a8.684 8.684 0 0 1-1.331-4.63c.002-4.797 3.906-8.699 8.706-8.699 2.324.001 4.509.907 6.153 2.551s2.547 3.83 2.547 6.155c-.002 4.797-3.906 8.7-8.702 8.7z"/><path fill="#000046" style="fill:var(--color5, #000046)" d="M12.166 21.296c-.117-.071-.232-.129-.231-.508.001-1.868.007-6.189 0-7.786-.005-1.008-.136-1.656.742-1.656 2.371-.001 5.838-.448 6.644 1.52.815 1.99-.503 2.953-.792 3.465 1.975.555 2.086 5.002-2.138 5.002-.905 0-2.178.005-3.651.006-.347 0-.499 0-.572-.044zm1.828-1.629 2.146-.001c.913-.001 1.727-.429 1.706-1.338-.015-.856-.585-1.138-1.376-1.216-.753.007-1.615.007-2.477.007v2.548zm0-4.269c1.589-.022 2.202.064 3.07-.153.596-.338.856-1.593.003-2.02-.593-.296-2.344-.195-3.073-.164v2.337z"/></symbol><symbol id="icon-youtube" viewBox="0 0 31 32"><path fill="#fff" style="fill:var(--color2, #fff)" d="M27.015 9.924c-.657-1.168-1.369-1.383-2.82-1.464-1.449-.098-5.093-.139-8.25-.139-3.163 0-6.809.041-8.256.138-1.448.083-2.162.296-2.824 1.466-.676 1.166-1.024 3.175-1.024 6.712v.011c0 3.522.348 5.546 1.024 6.7.663 1.168 1.375 1.38 2.823 1.478 1.449.085 5.095.135 8.258.135 3.157 0 6.801-.05 8.252-.133 1.451-.098 2.163-.31 2.82-1.478.682-1.154 1.027-3.178 1.027-6.7V16.637c0-3.538-.345-5.547-1.029-6.713z"/><path fill="#000046" style="fill:var(--color5, #000046)" d="M12.915 21.179v-9.076l7.564 4.538-7.564 4.538z"/></symbol>
    <symbol id="icon-student" viewBox="0 0 32 32">
        <path d="M28.653 13.587l-1.333-0.733-12-6.667h-0.147c-0.082-0.035-0.167-0.061-0.253-0.080h-0.493c-0.091 0.019-0.18 0.045-0.267 0.080h-0.147l-12 6.667c-0.205 0.116-0.376 0.285-0.495 0.489s-0.181 0.435-0.181 0.671 0.063 0.467 0.181 0.671c0.119 0.204 0.289 0.373 0.495 0.489l3.32 1.84v6.32c0 1.061 0.421 2.078 1.172 2.828s1.768 1.172 2.828 1.172h10.667c1.061 0 2.078-0.421 2.828-1.172s1.172-1.768 1.172-2.828v-6.32l2.667-1.493v3.813c0 0.354 0.14 0.693 0.391 0.943s0.589 0.391 0.943 0.391 0.693-0.141 0.943-0.391c0.25-0.25 0.391-0.589 0.391-0.943v-4.587c-0-0.236-0.064-0.468-0.183-0.672s-0.291-0.372-0.497-0.488zM21.333 23.333c0 0.354-0.141 0.693-0.391 0.943s-0.589 0.391-0.943 0.391h-10.667c-0.354 0-0.693-0.141-0.943-0.391s-0.391-0.589-0.391-0.943v-4.84l6.013 3.333 0.2 0.080h0.12c0.111 0.014 0.223 0.014 0.333 0 0.111 0.014 0.223 0.014 0.333 0h0.12c0.071-0.015 0.138-0.042 0.2-0.080l6.013-3.333v4.84zM14.667 19.147l-9.253-5.147 9.253-5.147 9.253 5.147-9.253 5.147z"></path>
    </symbol>

    <symbol id="icon-PL" viewBox="0 0 32 32">
        <path fill="#f0f0f0" style="fill: var(--color1, #f0f0f0)" d="M32 5.333h-32v21.333h32v-21.333z"></path>
        <path fill="#f0f0f0" style="fill: var(--color1, #f0f0f0)" d="M32 5.333h-32v10.666h32v-10.666z"></path>
        <path fill="#d80027" style="fill: var(--color2, #d80027)" d="M32 16h-32v10.666h32v-10.666z"></path>
    </symbol>
    <symbol id="icon-DE" viewBox="0 0 32 32">
        <path fill="#d80027" style="fill: var(--color2, #d80027)" d="M32 5.333h-32v21.334h32v-21.334z"></path>
        <path fill="#000" style="fill: var(--color3, #000)" d="M32 5.333h-32v7.111h32v-7.111z"></path>
        <path fill="#fbc53c" style="fill: var(--color4, #fbc53c)" d="M32 19.557h-32v7.111h32v-7.111z"></path>
    </symbol>
    <symbol id="icon-UA" viewBox="0 0 32 32">
        <path fill="#fbc53c" style="fill: var(--color4, #fbc53c)" d="M32 5.333h-32v21.333h32v-21.333z"></path>
        <path fill="#338af3" style="fill: var(--color5, #338af3)" d="M32 5.333h-32v10.666h32v-10.666z"></path>
    </symbol>
    <symbol id="icon-RU" viewBox="0 0 32 32">
        <path fill="#f0f0f0" style="fill: var(--color1, #f0f0f0)" d="M0 5.333v21.333h32v-21.333h-32z"></path>
        <path fill="#0052b4" style="fill: var(--color6, #0052b4)" d="M32 5.333h-32v21.334h32v-21.334z"></path>
        <path fill="#f0f0f0" style="fill: var(--color1, #f0f0f0)" d="M32 5.333h-32v7.111h32v-7.111z"></path>
        <path fill="#d80027" style="fill: var(--color2, #d80027)" d="M32 19.557h-32v7.111h32v-7.111z"></path>
    </symbol>
    <symbol id="icon-UK" viewBox="0 0 32 32">
        <path fill="#f0f0f0" style="fill: var(--color1, #f0f0f0)" d="M0 5.333h32v21.334h-32v-21.334z"></path>
        <path fill="#d80027" style="fill: var(--color2, #d80027)" d="M14 5.333h4v8.667h14v4h-14v8.667h-4v-8.667h-14v-4h14v-8.667z"></path>
        <path fill="#0052b4" style="fill: var(--color6, #0052b4)" d="M7.389 19.71l-7.388 4.105v-4.105h7.388z"></path>
        <path fill="#0052b4" style="fill: var(--color6, #0052b4)" d="M12.522 19.71l-12.522 6.957v-1.967l8.981-4.989h3.541z"></path>
        <path fill="#0052b4" style="fill: var(--color6, #0052b4)" d="M3.336 26.668l9.186-5.104v5.104h-9.186z"></path>
        <path fill="#f0f0f0" style="fill: var(--color1, #f0f0f0)" d="M12.522 19.71l-12.522 6.957v-1.967l8.981-4.989h3.541z"></path>
        <path fill="#d80027" style="fill: var(--color2, #d80027)" d="M12.522 19.71l-12.522 6.957v-1.967l8.981-4.989h3.541z"></path>
        <path fill="#0052b4" style="fill: var(--color6, #0052b4)" d="M26.354 19.71l5.646 3.137v-3.137h-5.646z"></path>
        <path fill="#0052b4" style="fill: var(--color6, #0052b4)" d="M19.478 20.594v6.072h10.929l-10.929-6.072z"></path>
        <path fill="#d80027" style="fill: var(--color2, #d80027)" d="M23.019 19.71l8.981 4.989v1.967l-12.522-6.957h3.541z"></path>
        <path fill="#0052b4" style="fill: var(--color6, #0052b4)" d="M24.612 12.287l7.388-4.105v4.105h-7.388z"></path>
        <path fill="#0052b4" style="fill: var(--color6, #0052b4)" d="M19.478 12.29l12.522-6.957v1.967l-8.981 4.989h-3.541z"></path>
        <path fill="#0052b4" style="fill: var(--color6, #0052b4)" d="M28.664 5.333l-9.186 5.104v-5.104h9.186z"></path>
        <path fill="#f0f0f0" style="fill: var(--color1, #f0f0f0)" d="M19.478 12.29l12.522-6.957v1.967l-8.981 4.989h-3.541z"></path>
        <path fill="#d80027" style="fill: var(--color2, #d80027)" d="M19.478 12.29l12.522-6.957v1.967l-8.981 4.989h-3.541z"></path>
        <path fill="#0052b4" style="fill: var(--color6, #0052b4)" d="M5.646 12.288l-5.646-3.137v3.137h5.646z"></path>
        <path fill="#0052b4" style="fill: var(--color6, #0052b4)" d="M12.522 11.405v-6.072h-10.929l10.929 6.072z"></path>
        <path fill="#d80027" style="fill: var(--color2, #d80027)" d="M8.981 12.29l-8.981-4.989v-1.967l12.522 6.957h-3.541z"></path>
    </symbol>
    <symbol id="icon-ES" viewBox="0 0 32 32">
        <path fill="#fbc53c" style="fill: var(--color4, #fbc53c)" d="M32 5.333h-32v21.334h32v-21.334z"></path>
        <path fill="#d80027" style="fill: var(--color2, #d80027)" d="M32 5.333h-32v7.111h32v-7.111z"></path>
        <path fill="#d80027" style="fill: var(--color2, #d80027)" d="M32 19.557h-32v7.111h32v-7.111z"></path>
    </symbol>
    <symbol id="icon-filters" viewBox="0 0 32 32">
        <path fill="#f4f6fc" style="fill: var(--color1, #f4f6fc)" d="M5.333 0h21.333c2.946 0 5.333 2.388 5.333 5.333v21.333c0 2.946-2.388 5.333-5.333 5.333h-21.333c-2.946 0-5.333-2.388-5.333-5.333v-21.333c0-2.946 2.388-5.333 5.333-5.333z"></path>
        <path fill="#000046" style="fill: var(--color2, #000046)" d="M12.872 22.667h-4.453c-0.059 0-0.117 0.012-0.17 0.036-0.050 0.022-0.096 0.054-0.133 0.094-0.036 0.038-0.065 0.083-0.085 0.131-0.018 0.044-0.028 0.092-0.031 0.14-0.002 0.046 0.003 0.092 0.016 0.136 0.011 0.039 0.028 0.076 0.051 0.111 0.049 0.076 0.123 0.134 0.207 0.166 0.046 0.017 0.095 0.026 0.144 0.026h4.453c0.186 0.722 0.843 1.257 1.623 1.257s1.437-0.535 1.623-1.257h9.065c0.049-0 0.098-0.009 0.144-0.026 0.084-0.031 0.157-0.090 0.205-0.165 0.022-0.034 0.039-0.072 0.051-0.111 0.013-0.044 0.018-0.090 0.016-0.136-0.002-0.048-0.013-0.095-0.031-0.14-0.020-0.048-0.049-0.093-0.085-0.131-0.038-0.039-0.083-0.072-0.133-0.094-0.054-0.024-0.111-0.036-0.17-0.036h-9.062c-0.186-0.722-0.843-1.257-1.623-1.257s-1.437 0.535-1.623 1.257zM14.495 22.248c0.463 0 0.838 0.375 0.838 0.838s-0.375 0.838-0.838 0.838c-0.463 0-0.838-0.375-0.838-0.838s0.375-0.838 0.838-0.838zM19.577 15.962h-11.158c-0.049 0-0.098 0.008-0.144 0.026-0.085 0.031-0.158 0.090-0.207 0.166-0.022 0.034-0.039 0.072-0.051 0.111-0.013 0.044-0.018 0.091-0.016 0.136 0.002 0.048 0.013 0.095 0.031 0.14 0.020 0.048 0.049 0.093 0.085 0.131 0.038 0.039 0.083 0.072 0.133 0.094 0.054 0.024 0.111 0.036 0.17 0.036h11.158c0.186 0.722 0.843 1.257 1.623 1.257s1.437-0.535 1.623-1.257h2.36c0.049-0 0.098-0.009 0.144-0.026 0.084-0.031 0.157-0.090 0.205-0.165 0.022-0.034 0.039-0.072 0.051-0.111 0.013-0.044 0.018-0.091 0.016-0.136-0.002-0.048-0.013-0.095-0.031-0.14-0.020-0.048-0.049-0.093-0.085-0.131-0.038-0.039-0.083-0.072-0.133-0.094-0.054-0.024-0.111-0.036-0.17-0.036h-2.358c-0.186-0.722-0.843-1.257-1.623-1.257s-1.437 0.535-1.623 1.257zM21.2 15.543c0.463 0 0.838 0.375 0.838 0.838s-0.375 0.838-0.838 0.838c-0.463 0-0.838-0.375-0.838-0.838s0.375-0.838 0.838-0.838zM10.148 9.257h-1.729c-0.059 0-0.117 0.012-0.17 0.036-0.050 0.022-0.096 0.054-0.133 0.094-0.036 0.038-0.065 0.083-0.085 0.131-0.018 0.044-0.028 0.092-0.031 0.14-0.002 0.046 0.003 0.092 0.016 0.136 0.011 0.039 0.028 0.076 0.051 0.111 0.049 0.076 0.123 0.135 0.207 0.166 0.046 0.017 0.095 0.026 0.144 0.026h1.729c0.186 0.722 0.843 1.257 1.623 1.257s1.437-0.535 1.623-1.257h11.789c0.049-0 0.098-0.009 0.144-0.026 0.084-0.031 0.157-0.090 0.205-0.165 0.022-0.034 0.039-0.072 0.051-0.111 0.013-0.044 0.018-0.091 0.016-0.136-0.002-0.048-0.013-0.095-0.031-0.14-0.020-0.048-0.049-0.093-0.085-0.131-0.038-0.039-0.083-0.072-0.133-0.094-0.054-0.024-0.111-0.036-0.17-0.036h-11.786c-0.186-0.722-0.843-1.257-1.623-1.257s-1.437 0.535-1.623 1.257zM11.771 8.838c0.463 0 0.838 0.375 0.838 0.838s-0.375 0.838-0.838 0.838c-0.463 0-0.838-0.375-0.838-0.838s0.375-0.838 0.838-0.838z"></path>
    </symbol>
    <symbol id="icon-close" viewBox="0 0 32 32">
        <path fill="#000046" style="fill: var(--color1, #000046)" d="M17.88 16l8.4-8.387c0.251-0.251 0.392-0.592 0.392-0.947s-0.141-0.696-0.392-0.947c-0.251-0.251-0.592-0.392-0.947-0.392s-0.696 0.141-0.947 0.392l-8.387 8.4-8.387-8.4c-0.251-0.251-0.592-0.392-0.947-0.392s-0.696 0.141-0.947 0.392c-0.251 0.251-0.392 0.592-0.392 0.947s0.141 0.696 0.392 0.947l8.4 8.387-8.4 8.387c-0.125 0.124-0.224 0.271-0.292 0.434s-0.103 0.337-0.103 0.513c0 0.176 0.035 0.35 0.103 0.513s0.167 0.31 0.292 0.434c0.124 0.125 0.271 0.224 0.434 0.292s0.337 0.103 0.513 0.103 0.35-0.035 0.513-0.103c0.162-0.068 0.31-0.167 0.434-0.292l8.387-8.4 8.387 8.4c0.124 0.125 0.271 0.224 0.434 0.292s0.337 0.103 0.513 0.103c0.176 0 0.35-0.035 0.513-0.103s0.31-0.167 0.434-0.292c0.125-0.124 0.224-0.271 0.292-0.434s0.103-0.337 0.103-0.513-0.035-0.35-0.103-0.513c-0.068-0.163-0.167-0.31-0.292-0.434l-8.4-8.387z"></path>
    </symbol>
    <symbol id="icon-user" viewBox="0 0 33 32">
        <path fill="#fff" style="fill: var(--color1, #fff)" d="M16.365 4c-3.429 0-6.219 2.79-6.219 6.219s2.79 6.219 6.219 6.219c3.429 0 6.219-2.79 6.219-6.219s-2.79-6.219-6.219-6.219z"></path>
        <path fill="#fff" style="fill: var(--color1, #fff)" d="M24.102 20.5c-1.703-1.729-3.96-2.681-6.355-2.681h-2.764c-2.396 0-4.653 0.952-6.355 2.681-1.694 1.72-2.627 3.991-2.627 6.394 0 0.382 0.309 0.691 0.691 0.691h19.347c0.382 0 0.691-0.309 0.691-0.691 0-2.403-0.933-4.674-2.627-6.394z"></path>
    </symbol>
</defs></svg>